<?xml version="1.0" encoding="utf-8"?>
<!-- Generator: Adobe Illustrator 16.0.4, SVG Export Plug-In . SVG Version: 6.00 Build 0)  -->
<!DOCTYPE svg PUBLIC "-//W3C//DTD SVG 1.1//EN" "http://www.w3.org/Graphics/SVG/1.1/DTD/svg11.dtd">
<svg version="1.1" id="Layer_1" xmlns="http://www.w3.org/2000/svg" xmlns:xlink="http://www.w3.org/1999/xlink" x="0px" y="0px"
	 width="220.354px" height="584.071px" viewBox="0 0 220.354 584.071" enable-background="new 0 0 220.354 584.071"
	 xml:space="preserve">
<g>
	<g>
		<path fill="#C3AAB0" d="M16.111,231.124c0-1.191,0.388-3.479,2.982-5.423c7.003-5.004,15.617-5.551,28.021-1.833
			c18.697,5.5,92.788,43.038,111.637,56.563c2.547,1.911,3.795,4.036,3.795,6.379c0,2.607-1.517,4.863-4.508,6.705l-0.154,0.09
			c-4.018,2.27-15.591,6.331-36.223-4.949l-6.209-3.44c-3.556-1.972-7.297-4.046-11.225-6.213
			c18.066,22.316,38.445,44.453,56.016,60.666c1.767,1.568,2.739,3.562,2.739,5.625c0,2.738-1.653,5.109-4.423,6.338l-0.676,0.242
			c-8.045,2.195-17.059-0.314-26.793-7.467c-13.782-10.166-39.031-38.582-58.676-65.875c-10.982,6.792-18.833,11.171-23.925,13.353
			c-15.913,6.701-24.899,2.477-28.843-0.636l-0.144-0.118c-1.772-1.515-2.748-3.469-2.748-5.502c0-2.501,1.442-4.738,3.956-6.137
			l0.139-0.074c13.189-6.773,26.3-14.524,39.885-23.585c-12.123-6.106-25.546-12.319-40.019-18.522
			C16.553,235.461,16.111,232.368,16.111,231.124z"/>
		<path fill="#C3AAB0" d="M17.158,316.518c0-2.865,2.126-4.756,2.927-5.467c2.765-2.586,11.287-8.1,28.793-1.785
			c29.395,10.594,86.019,41.434,111.754,59.25c3.283,2.273,3.972,4.832,3.972,6.578c0,1.314-0.464,4.604-4.765,6.754
			c-9.295,4.486-21.92,2.25-37.586-6.611l-0.758-0.432c-24.228-13.779-64.768-36.838-99.681-52.389
			C17.968,320.844,17.158,318.344,17.158,316.518z"/>
		<path fill="#C3AAB0" d="M16.787,376.534c0-3.828,1.267-7.227,3.873-10.387l0.251-0.301c2.238-2.691,5.305-6.379,10.004-9.666
			c7.125-5.209,12.066-6.141,27.125-1.273c19.848,6.543,50.611,22.885,71.873,36.443c2.312-5.686,6.66-9.264,10.453-10.779
			l0.138-0.053c1.138-0.414,4.161-1.516,6.992,0.16c1.859,1.102,3.013,3.033,3.427,5.738c0.942,7.201,3.533,13.318,6.275,19.797
			c2.641,6.232,5.369,12.678,6.504,20.047c0.289,1.852,0.438,3.707,0.438,5.504c0,13.014-7.347,23.791-21.835,32.037
			c-13.251,7.621-30.915,7.875-49.722,0.709c-33.184-12.646-62.342-44.047-74.281-79.996
			C17.288,381.569,16.787,378.944,16.787,376.534z M131.979,415.61c-5.193,0.111-12.48-1.268-21.863-6.598
			c-3.245-1.822-6.78-3.848-10.5-5.977c-18.047-10.34-40.509-23.207-56.584-28.271c-1.729-0.537-2.986-0.826-3.88-0.977
			c0.002,0.006,0.005,0.014,0.007,0.02c15.088,39.607,47.426,62.717,70.527,70.455c11.673,3.91,21.888,4.209,27.324,0.795
			c2.244-1.4,3.156-3.031,3.156-5.629c0-4.303-2.48-10.131-5.105-16.303C134.016,420.668,132.946,418.155,131.979,415.61z"/>
		<path fill="#C3AAB0" d="M15.197,497.25c0-11.818,3.942-34.916,30.349-56.816c2.617-2.215,5.231-2.996,7.737-2.293
			c1.294,0.363,3.634,1.48,4.765,4.877l0.039,0.123c0.719,2.371,1.083,4.916,1.083,7.561c0,6.803-2.367,13.611-6.493,18.678
			c-5.106,6.385-17.126,21.416-17.126,34.473c0,5.773,1.526,8.75,2.572,10.111c0.797,0.648,1.56,0.951,2.27,0.904
			c0.696-0.047,1.418-0.449,1.98-1.105c2.256-2.656,4.99-7.084,7.885-11.771c9.271-15.016,21.968-35.578,41.191-35.578
			c14.337,0,29.194,7.104,42.968,20.539c12.141,11.844,20.682,25.939,24.628,35.182c2.858,6.855,4.24,12.695,4.24,17.891
			c0,5.982-1.858,11.061-5.524,15.092c-5.241,5.697-13.107,10.379-20.548,12.24c-7.735,1.932-16.336-0.432-25.562-7.021
			c-7.923-5.889-19.721-12.496-23.598-14.666c-2.938-1.633-4.436-3.816-4.436-6.479c0-2.006,0.924-3.945,2.747-5.77
			c3.845-3.844,12.37-9.363,26.292-3.145c3.839,1.68,8.291,4.6,13.003,7.689c4.279,2.807,11.884,7.793,15.201,8.449
			c-0.549-12.066-28.117-52.361-49.168-53.203c-7.764-0.359-16.568,14.682-23,25.664c-2.522,4.309-4.904,8.379-7.172,11.553
			c-3.023,4.254-7.142,6.812-11.903,7.389c-6.619,0.803-14.192-2.289-21.9-8.938C19.873,522.059,15.197,510.239,15.197,497.25z"/>
	</g>
	<g>
		<path fill="#A67587" d="M209.997,86.93h-79.809c-13.314,0-22.389-2.432-27.224-7.293c-4.835-4.862-7.251-13.978-7.251-27.348
			c0-13.538,2.058-22.819,6.174-27.846c4.115-5.028,11.698-7.542,22.749-7.542c5.138,0,9.613,0.083,13.426,0.249v12.514h-2.071
			h-8.702c-9.229,0-15.001,1.243-17.321,3.729s-3.48,8.619-3.48,18.398c0,9.667,1.52,15.815,4.559,18.439
			c3.037,2.624,10.11,3.937,21.215,3.937h77.736V86.93z"/>
		<path fill="#A67587" d="M209.997,202.359v12.763h-79.228c-14.366,0-23.799-2.888-28.302-8.661
			c-4.504-5.773-6.754-17.888-6.754-36.341c0-17.292,2.167-29.047,6.506-35.263c4.336-6.216,12.582-9.323,24.737-9.323h3.812h79.228
			v12.763h-79.228c-10.72,0-17.445,1.74-20.181,5.221c-2.734,3.481-4.102,12.044-4.102,25.691c0,14.806,1.338,24.034,4.02,27.68
			c2.679,3.646,9.434,5.47,20.263,5.47H209.997z"/>
		<path fill="#A67587" d="M179.333,331.129v-12.68c9.116,0,14.903-1.521,17.362-4.559c2.457-3.039,3.688-10.193,3.688-21.465
			c0-13.372-1.174-21.991-3.521-25.857c-2.35-3.868-7.583-5.801-15.705-5.801c-9.116,0-14.669,1.52-16.658,4.558
			c-1.988,3.038-3.344,12.071-4.061,27.1c-0.774,17.623-3.012,28.826-6.713,33.605s-11.989,7.168-24.862,7.168
			c-13.923,0-22.929-2.748-27.017-8.246c-4.09-5.498-6.133-17.639-6.133-36.422c0-16.299,2.058-27.142,6.174-32.528
			c4.115-5.387,12.417-8.08,24.904-8.08l5.055-0.083v12.68h-2.818c-10.109,0-16.396,1.546-18.854,4.641
			c-2.459,3.094-3.688,11.022-3.688,23.785c0,14.641,1.229,23.647,3.688,27.018c2.458,3.369,9.02,5.055,19.684,5.055
			c6.905,0,11.505-1.148,13.799-3.439c2.291-2.293,3.658-7.086,4.102-14.379l0.663-13.26l0.663-12.597
			c1.326-19.173,11.271-28.758,29.835-28.758c12.873,0,21.464,2.789,25.774,8.371c4.309,5.58,6.463,16.711,6.463,33.398
			c0,16.906-2.002,27.929-6.008,33.066C201.142,328.561,192.538,331.129,179.333,331.129z"/>
		<path fill="#A67587" d="M198.146,404.954H96.874V392.19h101.272v-36.879h11.851V441.5h-11.851V404.954z"/>
	</g>
</g>
</svg>
