<svg xmlns="http://www.w3.org/2000/svg" viewBox="0 0 222.49 417.56">
  <title>mercury</title>
  <g id="Layer_2" data-name="Layer 2">
    <g id="Layer_1-2" data-name="Layer 1">
      <g>
        <path d="M.26,10.8C.26,6.85.13,3.49,0,.71H8.27L8.73,5h.19a11,11,0,0,1,9.57-5c4.07,0,7.31,2.07,8.66,5.37h.13a14.13,14.13,0,0,1,4.07-3.81,11.4,11.4,0,0,1,6-1.55C43.44,0,48,4.27,48,13.7V32.32H38.46V15.13c0-4.59-1.49-7.24-4.65-7.24a4.81,4.81,0,0,0-4.52,3.43,8.24,8.24,0,0,0-.39,2.52V32.32H19.33V14.61c0-4-1.42-6.72-4.52-6.72a5,5,0,0,0-4.59,3.56,6.52,6.52,0,0,0-.39,2.46V32.32H.26Z" fill="#231f20"/>
        <path d="M222.49,325.06c0,11.57-8.21,16.87-16.68,16.87-9.24,0-16.35-6.08-16.35-16.29s6.72-16.74,16.87-16.74C216,308.89,222.49,315.55,222.49,325.06Zm-22.88.32c0,5.43,2.26,9.5,6.46,9.5,3.81,0,6.27-3.81,6.27-9.5,0-4.72-1.81-9.5-6.27-9.5C201.35,315.88,199.6,320.72,199.6,325.38Z" fill="#231f20"/>
        <g>
          <path d="M61.41,187.26v2.23q-9.26,1.28-13.42,6.2t-4.16,8.26q0,2.51,2.23,2.51a6.35,6.35,0,0,0,.78-.06q1.17-.11,1.56-.11A5.49,5.49,0,0,1,52,207.72a5,5,0,0,1,1.67,4,5.65,5.65,0,0,1-1.84,4.6,6.28,6.28,0,0,1-4.13,1.53,6.61,6.61,0,0,1-5.47-2.74,11.91,11.91,0,0,1-2.12-7.48q0-7.42,5.78-13.59T61.41,187.26Z" fill="#231f20"/>
          <path d="M79.5,249.89a13.75,13.75,0,0,1-4,9.52q-4,4.33-11.75,4.33-5.75,0-8.62-2.54a7.28,7.28,0,0,1-2.87-5.44,4.24,4.24,0,0,1,.86-2.68A2.68,2.68,0,0,1,55.33,252q3,0,3,3.18A9.19,9.19,0,0,1,58,257.2a3,3,0,0,0-.22.95,2.77,2.77,0,0,0,1.73,2.32,8.27,8.27,0,0,0,4.13,1,10.87,10.87,0,0,0,6.81-2.37,7.83,7.83,0,0,0,3.07-6.56q0-3.63-4.3-11.44-5-9-5-13.23a11.52,11.52,0,0,1,4.24-9,14.32,14.32,0,0,1,9.66-3.68,11.38,11.38,0,0,1,6.78,2q2.82,2,2.82,4.3,0,3-2.46,3-1.84,0-2.68-3.29-.89-3.63-4.86-3.63a9.06,9.06,0,0,0-5.53,1.73,5.37,5.37,0,0,0-2.34,4.52q0,3.8,3.74,10.44a68,68,0,0,1,4.72,9.21A18.37,18.37,0,0,1,79.5,249.89Z" fill="#231f20"/>
        </g>
        <path d="M.8,176.13C.8,164.46.48,156.84.15,150H21.38l.81,14.58h.65c4.05-11.5,13.77-16.37,21.39-16.37a25.37,25.37,0,0,1,5.18.32v23.17a35.28,35.28,0,0,0-6.64-.65c-9.07,0-15.23,4.86-16.85,12.48a29,29,0,0,0-.49,5.51v40.19H.8Z" fill="#231f20"/>
        <path d="M49.49,288c0-9.88-.32-18.31-.65-25.28H69.58l1.13,10.69h.49c3.4-5,10.37-12.48,24-12.48,10.21,0,18.31,5.19,21.71,13.45h.32a35.44,35.44,0,0,1,10.21-9.56,28.58,28.58,0,0,1,15.07-3.89c15.23,0,26.74,10.69,26.74,34.35v46.67h-24v-43.1c0-11.5-3.73-18.15-11.67-18.15-5.67,0-9.72,3.89-11.34,8.59a20.61,20.61,0,0,0-1,6.32v46.34h-24v-44.4c0-10-3.56-16.85-11.34-16.85-6.32,0-10,4.86-11.5,8.91a16.33,16.33,0,0,0-1,6.16v46.18h-24Z" fill="#231f20"/>
        <path d="M47.68,129.37a5.06,5.06,0,0,0-2.9.79,6.26,6.26,0,0,0-1.91,2,8.77,8.77,0,0,0-1,2.74,14.92,14.92,0,0,0-.31,3,14.29,14.29,0,0,0,.31,2.9,9,9,0,0,0,1,2.67,5.69,5.69,0,0,0,1.86,2,5.1,5.1,0,0,0,2.85.76,5.28,5.28,0,0,0,4-1.45,6.85,6.85,0,0,0,1.75-3.89h7a11.91,11.91,0,0,1-4.07,8,13.12,13.12,0,0,1-8.59,2.74,14.38,14.38,0,0,1-5.41-1A12,12,0,0,1,38,147.81a12.6,12.6,0,0,1-2.69-4.24,14.73,14.73,0,0,1-1-5.41,17.47,17.47,0,0,1,.89-5.67A12.73,12.73,0,0,1,37.83,128,12,12,0,0,1,42,125a14.33,14.33,0,0,1,5.69-1.07,16.45,16.45,0,0,1,4.5.61,12,12,0,0,1,3.86,1.86,9.59,9.59,0,0,1,4,7.5H53Q52.31,129.37,47.68,129.37Z" fill="#231f20"/>
        <path d="M57,33c-5.65,0-9.79-4.58-9.79-10.91,0-7.11,5.11-12.23,11.15-12.23,4.58,0,7.5,2.87,7.5,7.06a14.07,14.07,0,0,1-.24,2.58L51,19.32a9.37,9.37,0,0,0,0,1.17c0,5.5,3.21,9.45,7.65,9.45a8,8,0,0,0,6.23-3l1,.58A9.6,9.6,0,0,1,57,33Zm.49-21.43c-2.68,0-5.55,2.34-6.33,6.28l10.81,0C62.21,14,60.41,11.57,57.49,11.57Z" fill="#231f20"/>
        <path d="M40,208.19l-.93.19c-.78.12-1.12.65-1.62,1.87L33.67,220l-1.78,5.23c-.93,2.74-2.06,4-3.89,4a2.15,2.15,0,0,1-2.37-2,1.73,1.73,0,0,1,1.74-1.87,2.11,2.11,0,0,1,2,1.31c.5-.22.87-.81,1.34-2.27l.81-2.37v-.19L26,209.59a1.65,1.65,0,0,0-1.37-1.09l-.72-.28L23.76,207h7.72l-.09,1.21-.93.25c-.56.12-.78.5-.5,1.18l3.3,7.79,2.52-7.2c.41-1.12.22-1.59-.56-1.71l-1-.34L34.11,207h5.95Z" fill="#231f20"/>
        <path d="M39.11,41.71V32.13H100.9v9.58h-2q-8.72,0-11.31,3.19T85,56v46.17q0,12.6,2.07,19.85a23,23,0,0,0,9.06,12.34,27.65,27.65,0,0,0,16.74,5.09q10.61,0,18.17-5.44t9.8-13.25Q143.11,113,143.11,99V59.66q0-18-17.35-18V32.13h43.32v9.58a16.82,16.82,0,0,0-7.77,2.11,11.56,11.56,0,0,0-5.61,5.87q-1.55,3.75-1.55,10.49v39.1a108.39,108.39,0,0,1-1.6,20.58A35.55,35.55,0,0,1,145,135.22q-6,7.38-16.57,11.87a59.94,59.94,0,0,1-23.56,4.49,63.05,63.05,0,0,1-24.3-4.44q-10.75-4.44-16.44-11.22a36.85,36.85,0,0,1-7.72-14.76,77.61,77.61,0,0,1-2-18.94V56q0-8.28-2.85-11.31T39.11,41.71Z" fill="#231f20"/>
        <path d="M76.67,5.32A7.47,7.47,0,0,1,79,5.68l-.74,6.14a5.26,5.26,0,0,0-1.74-.24,4,4,0,0,0-3.54,1.82,9.4,9.4,0,0,0-1.24,5.29V32.32H65.37V5.82h5.21L71.29,10h.21a9.61,9.61,0,0,1,2.28-3.57A4.26,4.26,0,0,1,76.67,5.32Z" fill="#231f20"/>
        <path d="M179.7,341.93c-6.38,0-10.62-4.92-10.62-11.49a11.34,11.34,0,0,1,11.3-11.69c6.23,0,10.57,4.68,10.57,11.11C191,336.62,186.08,341.93,179.7,341.93Zm4.82-19.34a6.53,6.53,0,0,0-4.63-2c-4,0-7,3.46-7,8.77,0,3.6.88,6.87,2.68,8.72a6.21,6.21,0,0,0,4.58,1.95c3.9,0,7-3.41,7-8.72C187.15,327.75,186.33,324.49,184.52,322.59Z" fill="#231f20"/>
        <path d="M41.38,405.83h2.74A32.49,32.49,0,0,1,37.78,414q-3.82,3.57-7,3.57a5.51,5.51,0,0,1-4.47-1.79,8,8,0,0,1-1.51-5.3,14.47,14.47,0,0,1,.28-3q-7.93,10-14.68,10a8.3,8.3,0,0,1-6.48-3.07q-2.68-3.07-2.68-8.87,0-8.09,4.47-17.39a39.33,39.33,0,0,1,11.05-14.4q6.59-5.11,11.44-5.11a7.52,7.52,0,0,1,4.27,1.17,8.09,8.09,0,0,1,2.82,3.52l6.81-22.49a27.18,27.18,0,0,0,1.23-4.86,2.21,2.21,0,0,0-.75-1.9q-.75-.56-3.71-.56H37.3l.73-2.34q8.09,0,12.89-2h1.4L34.45,398q-3.29,10.88-3.29,12.84a3.44,3.44,0,0,0,.53,2.09,1.81,1.81,0,0,0,1.53.7,5.72,5.72,0,0,0,3.71-2A30.14,30.14,0,0,0,41.38,405.83ZM7.66,408.18a8.37,8.37,0,0,0,1.09,4.72A3.64,3.64,0,0,0,12,414.49q3.74,0,8.65-5.22t9-17.19q4.13-12,4.13-15.16a5.7,5.7,0,0,0-1.4-3.74,4.56,4.56,0,0,0-3.68-1.67q-3.63,0-7.62,4.27t-8.71,14.79Q7.66,401.09,7.66,408.18Z" fill="#231f20"/>
        <path d="M49,407.88a4.21,4.21,0,0,0,1.25,1.37A5.34,5.34,0,0,0,52,410a8.23,8.23,0,0,0,2.06.25,7.71,7.71,0,0,0,1.6-.18,5.43,5.43,0,0,0,1.52-.56,3.44,3.44,0,0,0,1.14-1,2.66,2.66,0,0,0,.46-1.6q0-1.62-2.16-2.44a43.19,43.19,0,0,0-6-1.63q-1.58-.36-3.08-.84a10.48,10.48,0,0,1-2.67-1.27,6.18,6.18,0,0,1-1.88-2,5.61,5.61,0,0,1-.71-2.92,7.92,7.92,0,0,1,1-4.17,7.32,7.32,0,0,1,2.62-2.57,11.45,11.45,0,0,1,3.66-1.32,22.53,22.53,0,0,1,4.17-.38,20.89,20.89,0,0,1,4.14.41,11,11,0,0,1,3.58,1.37A8.21,8.21,0,0,1,64,391.77a8.62,8.62,0,0,1,1.25,4H58.42A3.16,3.16,0,0,0,56.84,393a7.22,7.22,0,0,0-3.35-.74,12.33,12.33,0,0,0-1.32.08,4.4,4.4,0,0,0-1.3.33,2.67,2.67,0,0,0-1,.74,2,2,0,0,0-.41,1.3,2,2,0,0,0,.71,1.58,5.5,5.5,0,0,0,1.86,1,23,23,0,0,0,2.62.69q1.47.31,3,.66a31,31,0,0,1,3.07.86,10.15,10.15,0,0,1,2.67,1.35,6.51,6.51,0,0,1,1.88,2.08A6.11,6.11,0,0,1,66,406a8,8,0,0,1-3.76,7.17,11.16,11.16,0,0,1-3.84,1.5,22.42,22.42,0,0,1-4.4.43,21.8,21.8,0,0,1-4.47-.46,11.79,11.79,0,0,1-3.89-1.52,8.7,8.7,0,0,1-2.79-2.82,8.84,8.84,0,0,1-1.2-4.4h6.86A4,4,0,0,0,49,407.88Z" fill="#231f20"/>
      </g>
    </g>
  </g>
</svg>
