<?xml version="1.0" encoding="utf-8"?>
<!-- Generator: Adobe Illustrator 21.0.0, SVG Export Plug-In . SVG Version: 6.00 Build 0)  -->
<svg version="1.1"
	 id="Layer_1" xmlns:cc="http://creativecommons.org/ns#" xmlns:dc="http://purl.org/dc/elements/1.1/" xmlns:inkscape="http://www.inkscape.org/namespaces/inkscape" xmlns:rdf="http://www.w3.org/1999/02/22-rdf-syntax-ns#" xmlns:sodipodi="http://sodipodi.sourceforge.net/DTD/sodipodi-0.dtd" xmlns:svg="http://www.w3.org/2000/svg"
	 xmlns="http://www.w3.org/2000/svg" xmlns:xlink="http://www.w3.org/1999/xlink" x="0px" y="0px" viewBox="0 0 32.8 32.8"
	 style="enable-background:new 0 0 32.8 32.8;" xml:space="preserve">
<g transform="translate(0,-952.36218)">
	<path d="M16.4,953.8c-8.3,0-15,6.7-15,15s6.7,15,15,15s15-6.7,15-15S24.7,953.8,16.4,953.8z M16.4,955.1c7.5,0,13.6,6.1,13.6,13.6
		s-6.1,13.6-13.6,13.6s-13.6-6.1-13.6-13.6S8.9,955.1,16.4,955.1z M8.9,964.7c-0.4,0-0.7,0.3-0.6,0.7c0,0.2,0.1,0.3,0.2,0.4L16,974
		c0.3,0.3,0.7,0.3,1,0l0,0l7.5-8.2c0.3-0.3,0.2-0.7,0-1c-0.3-0.3-0.7-0.2-1,0l-7,7.6l-7-7.6C9.3,964.7,9.1,964.7,8.9,964.7z"/>
</g>
</svg>
